<svg width="25" height="15" viewBox="0 0 25 15" fill="none" xmlns="http://www.w3.org/2000/svg">
<g clip-path="url(#clip0_3148_30)">
<path fill-rule="evenodd" clip-rule="evenodd" d="M13.3322 6.22591C13.1015 6.22676 12.8729 6.18231 12.6597 6.09518C12.6003 6.07148 12.5428 6.04405 12.4873 6.01311C12.311 6.29015 12.1474 6.62742 12.0881 6.84095C12.0288 7.0545 12.0881 14.9343 12.0881 14.9343H11.0771V14.017C10.6046 14.6722 9.85732 14.9999 9.00021 14.9999C7.29699 14.9999 6.05511 13.8096 6.05511 12.0403C6.05511 10.271 7.29685 9.09153 9.00021 9.09153C9.82445 9.09153 10.5498 9.39734 11.0332 10.0198V7.18252L11.0316 7.0545C10.9907 6.67999 10.8468 6.32557 10.6179 6.02915C10.5178 6.14573 10.3971 6.24381 10.2613 6.31839C10.0292 6.44791 9.76679 6.5147 9.50037 6.51202C9.4711 6.51202 9.44123 6.5113 9.41166 6.5098C9.3757 6.50801 9.34038 6.50641 9.30587 6.50485C9.29732 6.50446 9.2888 6.50406 9.28034 6.50367C9.01162 6.5069 8.74416 6.46676 8.4885 6.38478C8.21209 6.282 7.94153 6.08371 7.63709 5.76049C7.41202 5.52163 7.18666 5.29793 6.92781 5.05634C6.57528 4.72728 6.1935 4.43038 5.78705 4.16931C5.46468 3.96228 5.12748 3.77886 4.77814 3.62045C4.45847 3.4709 4.12537 3.35123 3.7832 3.26299L3.78432 3.26185C4.12304 2.98509 4.48764 2.74097 4.87324 2.53279C5.24551 2.32793 5.63728 2.15986 6.04281 2.03099C6.50008 1.88396 6.97738 1.80704 7.45814 1.80291C8.06258 1.80036 8.65863 1.94337 9.19482 2.21963C9.67287 2.45243 10.1041 2.76947 10.4674 3.15524C10.7201 3.42913 10.9043 3.75792 11.0051 4.11512C11.1003 4.4761 11.1 4.85524 11.0041 5.21599C10.9876 5.28166 10.9684 5.34649 10.9465 5.4104C11.1753 5.70023 11.3819 6.0073 11.5644 6.32905C11.6819 6.0554 11.8109 5.78687 11.9509 5.52421C11.8387 5.3806 11.7402 5.22668 11.6567 5.06446C11.4465 4.66872 11.3428 4.22605 11.3556 3.77912C11.3761 3.33499 11.5016 2.90182 11.7221 2.51449C12.0413 1.96693 12.4586 1.4815 12.9535 1.08197C13.8036 0.363975 14.8555 0 16.0792 0C16.5268 0.00206371 16.9732 0.0468231 17.4122 0.133657C17.7877 0.207098 18.1578 0.305299 18.52 0.427601C18.8763 0.544562 19.2232 0.687486 19.5581 0.855205C19.1826 1.04959 18.8262 1.27825 18.4936 1.53823C18.1287 1.81657 17.7849 2.12092 17.4649 2.44883C17.061 2.86225 16.6958 3.31092 16.3735 3.78936C16.1367 4.14104 15.9346 4.46253 15.7369 4.80101C15.4693 5.25981 15.2074 5.5633 14.9126 5.75746C14.5976 5.96472 14.2272 6.04852 13.8686 6.14977C13.6942 6.19963 13.5137 6.22526 13.3322 6.22591ZM10.5474 4.94648C10.5869 4.72131 10.576 4.4881 10.5127 4.26385C10.4305 3.9737 10.2813 3.7065 10.0768 3.48333C9.77863 3.16404 9.4236 2.90183 9.02949 2.70984C8.54764 2.46362 8.01251 2.33707 7.47024 2.34109C7.14185 2.34274 6.81475 2.38207 6.49554 2.45828C6.22268 2.5228 5.95554 2.60896 5.69669 2.71595C5.43998 2.81927 5.19291 2.94463 4.95827 3.09061L4.95998 3.0912C5.20643 3.19558 5.44593 3.31539 5.67699 3.4499C6.24613 3.77641 6.77567 4.16625 7.25534 4.61185C7.44817 4.79185 7.61584 4.95835 7.7832 5.1359C8.36755 5.75592 8.85103 5.92647 9.15416 5.96002C9.20761 5.96599 9.26136 5.96899 9.31515 5.96905C9.55788 5.97033 9.79616 5.90442 10.0031 5.77878C10.0859 5.72993 10.1621 5.67147 10.2302 5.60475C10.2285 5.60292 10.2268 5.6011 10.2251 5.59927L10.2248 5.59901C9.97353 5.33061 9.70646 5.04541 9.43936 4.83391C9.15432 4.60911 8.96929 4.54213 8.7534 4.46397C8.60547 4.41042 8.44304 4.3516 8.22399 4.23316L8.65909 3.63447C8.65909 3.63447 9.50149 3.92596 10.3068 4.7012C10.389 4.78112 10.4692 4.8629 10.5474 4.94648ZM13.4739 5.53353C13.2662 5.5351 13.0622 5.49437 12.874 5.41581C12.9224 5.33964 12.9743 5.25724 13.03 5.16743C13.7127 4.06581 14.5435 3.24303 14.5435 3.24303L13.9806 2.76784C13.9806 2.76784 13.0659 3.70862 12.4385 4.7012C12.3868 4.78014 12.3361 4.85977 12.2866 4.94002C12.0647 4.61191 11.9526 4.22012 11.971 3.82099C11.9879 3.46021 12.0894 3.1083 12.2674 2.79309C12.5286 2.34056 12.8718 1.93954 13.2798 1.61009C13.6975 1.25832 14.1844 0.996117 14.7096 0.840062C15.1739 0.703872 15.656 0.636362 16.1402 0.639727C16.6184 0.641886 17.0949 0.696773 17.5608 0.803367C17.7565 0.846606 17.9494 0.901422 18.1385 0.96752C17.878 1.15505 17.6303 1.35932 17.3969 1.57899C16.821 2.11235 16.3087 2.70913 15.8699 3.35772C15.6934 3.61963 15.5429 3.85888 15.3962 4.11055C15.1128 4.59649 14.6439 5.2215 14.0195 5.4389C13.8444 5.50086 13.6598 5.53288 13.4739 5.53353ZM7.12097 12.0403C7.12097 13.2744 7.96732 14.0825 9.08814 14.0825C10.1977 14.0825 11.0437 13.2745 11.0437 12.0403C11.0437 10.8061 10.198 10.0089 9.08814 10.0089C7.96709 10.0089 7.12097 10.8062 7.12097 12.0403Z" fill="#03A84E"/>
<path fill-rule="evenodd" clip-rule="evenodd" d="M1.16479 12.8268C1.46149 13.624 2.18679 14.0828 3.16482 14.0828C3.84615 14.0828 4.41756 13.8534 4.84618 13.3839L5.41756 14.061C4.90102 14.6726 4.09888 15.0003 3.13184 15.0003C1.25274 15.0003 0 13.7656 0 12.0406C0 10.3262 1.23075 9.0918 2.92297 9.0918C4.51638 9.0918 5.75812 10.2063 5.79108 11.9313L1.16479 12.8268ZM4.74724 11.3961C4.56046 10.5661 3.86812 9.97641 2.92309 9.97641C1.81315 9.97641 1.022 10.7737 1.022 11.9859V12.0952L4.74724 11.3961Z" fill="#03A84E"/>
<path fill-rule="evenodd" clip-rule="evenodd" d="M14.0438 12.8268C14.3405 13.624 15.0658 14.0828 16.0438 14.0828C16.7252 14.0828 17.2966 13.8534 17.7251 13.3839L18.2965 14.061C17.7799 14.6726 16.9778 15.0003 16.0107 15.0003C14.1316 15.0003 12.8789 13.7656 12.8789 12.0406C12.8789 10.3259 14.1097 9.0918 15.802 9.0918C17.3954 9.0918 18.6371 10.2063 18.6701 11.9313L14.0438 12.8268ZM17.6262 11.3961C17.4395 10.5661 16.7472 9.97641 15.8021 9.97641C14.6922 9.97641 13.901 10.7737 13.901 11.9858V12.0951L17.6262 11.3961Z" fill="#03A84E"/>
<path d="M20.4837 10.0201C20.9121 9.43041 21.6594 9.09183 22.5824 9.0918C24 9.0918 25 9.90004 25.0002 11.6037V14.9347H23.9452V11.7239C23.9452 10.588 23.3738 10.031 22.3738 10.031C21.253 10.031 20.5276 10.6973 20.5276 11.9532V14.9347H19.4727V9.14609H20.4837V10.0201Z" fill="#03A84E"/>
</g>
<defs>
<clipPath id="clip0_3148_30">
<rect width="25" height="15" fill="white"/>
</clipPath>
</defs>
</svg>
