<svg width="25" height="25" viewBox="0 0 25 25" fill="none" xmlns="http://www.w3.org/2000/svg">
<path d="M12.333 24.5C18.9604 24.5 24.333 19.1274 24.333 12.5C24.333 5.87258 18.9604 0.5 12.333 0.5C5.70559 0.5 0.333008 5.87258 0.333008 12.5C0.333008 19.1274 5.70559 24.5 12.333 24.5Z" fill="url(#paint0_linear_3193_2531)"/>
<path opacity="0.5" d="M11.4486 20.4711C15.0499 20.4711 17.9694 17.4868 17.9694 13.8054C17.9694 10.124 15.0499 7.13965 11.4486 7.13965C7.84721 7.13965 4.92773 10.124 4.92773 13.8054C4.92773 17.4868 7.84721 20.4711 11.4486 20.4711Z" fill="white"/>
<path opacity="0.748" d="M13.1878 17.8627C16.7892 17.8627 19.7087 14.8784 19.7087 11.197C19.7087 7.5156 16.7892 4.53125 13.1878 4.53125C9.58647 4.53125 6.66699 7.5156 6.66699 11.197C6.66699 14.8784 9.58647 17.8627 13.1878 17.8627Z" fill="white"/>
<defs>
<linearGradient id="paint0_linear_3193_2531" x1="24.333" y1="12.5" x2="0.333008" y2="12.5" gradientUnits="userSpaceOnUse">
<stop stop-color="#B78FFF"/>
<stop offset="1" stop-color="#966FDB"/>
</linearGradient>
</defs>
</svg>
