<svg width="50" height="50" viewBox="0 0 50 50" fill="none" xmlns="http://www.w3.org/2000/svg">
<rect opacity="0.3" width="50" height="50" rx="8" fill="#3CAC70"/>
<path d="M32.761 32.0023C33.9975 32.2768 34.9787 32.6761 35.7045 33.2002C36.4303 33.7243 36.7932 34.4855 36.7932 35.4837C36.7932 36.2823 36.5177 36.9187 35.9666 37.3929C35.4155 37.8671 34.6964 38.179 33.8093 38.3288V40.0508H31.2287V38.3288C30.3147 38.1541 29.5688 37.8047 28.9908 37.2806C28.4128 36.7565 28.097 36.0827 28.0432 35.2591H29.9384C30.0459 36.3822 30.9061 36.9437 32.519 36.9437C33.3524 36.9437 33.9438 36.7939 34.2932 36.4945C34.6427 36.195 34.8174 35.8706 34.8174 35.5212C34.8174 35.0969 34.636 34.7225 34.2731 34.3981C33.9101 34.0737 33.2314 33.7992 32.2368 33.5745C29.5486 32.9756 28.2045 31.8775 28.2045 30.2803C28.2045 29.5565 28.4868 28.9389 29.0513 28.4272C29.6158 27.9156 30.3416 27.5725 31.2287 27.3978V25.6758H33.8093V27.4352C34.6696 27.6349 35.3349 28.0092 35.8053 28.5583C36.2757 29.1073 36.5244 29.7437 36.5513 30.4674H34.6561C34.6024 29.3444 33.89 28.7829 32.519 28.7829C31.7932 28.7829 31.222 28.9201 30.8053 29.1947C30.3886 29.4692 30.1803 29.8311 30.1803 30.2803C30.1803 30.6546 30.3685 30.9728 30.7448 31.2349C31.1212 31.4969 31.7932 31.7527 32.761 32.0023Z" fill="black"/>
<path d="M25.9375 32.5H13.75V19.375H36.25V24.0625H38.125V19.375C38.1245 18.8779 37.9268 18.4012 37.5753 18.0497C37.2238 17.6982 36.7471 17.5005 36.25 17.5H30.625V13.75C30.6245 13.2529 30.4268 12.7762 30.0753 12.4247C29.7238 12.0732 29.2471 11.8755 28.75 11.875H21.25C20.7529 11.8755 20.2762 12.0732 19.9247 12.4247C19.5732 12.7762 19.3755 13.2529 19.375 13.75V17.5H13.75C13.2529 17.5005 12.7762 17.6982 12.4247 18.0497C12.0732 18.4012 11.8755 18.8779 11.875 19.375V32.5C11.8755 32.9971 12.0732 33.4738 12.4247 33.8253C12.7762 34.1768 13.2529 34.3745 13.75 34.375H25.9375V32.5ZM21.25 13.75H28.75V17.5H21.25V13.75Z" fill="black"/>
</svg>
