<svg width="129" height="91" viewBox="0 0 129 91" fill="none" xmlns="http://www.w3.org/2000/svg">
<g clip-path="url(#clip0_1667_6108)">
<path d="M112.175 56.1973C108.836 60.2626 104.673 63.5741 99.9612 65.9135C95.1854 68.3425 89.9568 69.4816 84.1793 69.4816C79.1839 69.4816 74.5591 68.5621 70.2363 66.7369C66.0187 64.983 62.1582 62.4714 58.8458 59.3263C55.609 56.202 53.0329 52.4592 51.2705 48.3201C49.4066 44.0631 48.453 39.4634 48.471 34.8163L53.6309 23.5905L59.0791 35.4201L64.3901 46.7282C66.4528 49.473 69.0305 51.7897 71.9791 53.5487C73.0358 54.2349 74.1749 54.8387 75.3963 55.3739C78.1903 56.5969 81.2117 57.2143 84.2616 57.1854C88.3649 57.1854 92.0839 56.2797 95.2678 54.3858C98.4387 52.526 101.157 49.9856 103.227 46.9478L112.175 56.1973V56.1973ZM61.7552 7.05383C68.0384 2.38548 75.6797 -0.0925207 83.5068 -2.79244e-06C89.2706 -2.79244e-06 94.513 1.20766 99.2887 3.56808C103.872 5.83573 107.93 9.03795 111.201 12.9686L102.239 22.1496C100.175 19.1858 97.4503 16.7428 94.2797 15.0134C90.9874 13.1815 87.2742 12.2401 83.5068 12.2824C80.4053 12.2824 77.4411 12.9 74.6415 14.1077C71.9555 15.2666 69.5079 16.9138 67.423 18.9657L61.7552 7.05383Z" fill="#50AFCF"/>
<path d="M65.1588 45.9734L59.8342 34.583L53.5351 21.0105L31.015 69.3169H16.7427L48.4437 2.27808H58.6128L84.1795 56.3483C76.8237 56.1287 69.2347 51.5725 65.1451 45.9597L65.1588 45.9734Z" fill="#4498C6"/>
<path d="M14.2723 90.1902H11.4453L10.2239 87.6102L8.34383 83.4383L7.13617 80.7759L5.90106 83.3559L3.18383 89.2021L2.73096 90.1902H0L6.14808 77.1255H8.09681L14.2449 90.1627L14.2723 90.1902ZM24.1944 90.1902H15.6447V77.1255H24.2081V79.2526H18.06V82.3541H24.1395V84.4126H18.06V87.9807H24.2081V90.1765L24.1944 90.1902ZM34.9672 90.1902H26.1705V77.1255H28.7505V87.6651H34.9672V90.1765V90.1902ZM45.2872 90.1902H36.4082V77.1255H38.9745V87.6651H45.1912V90.1765H45.2735L45.2872 90.1902ZM59.9164 90.1902H57.1168L56.2797 88.4336L55.8954 87.6102L53.6997 82.9031L52.7116 80.7759L50.5158 85.4831L49.1435 88.4336L48.3201 90.1902H45.5068L51.6549 77.1392H53.6311L59.9164 90.1765V90.1902ZM78.1959 87.8298C77.5392 88.6024 76.7432 89.2448 75.8493 89.7236C74.9435 90.1902 73.8731 90.4098 72.734 90.4098C71.7597 90.4098 70.8402 90.2725 70.0031 89.8746C68.3795 89.1689 67.0642 87.9023 66.2978 86.3065C65.9135 85.4831 65.7488 84.6597 65.7488 83.6579C65.7374 82.7619 65.9148 81.8736 66.2695 81.0508C66.6242 80.2279 67.1482 79.489 67.8073 78.8821C68.4112 78.2783 69.1797 77.8254 70.0031 77.4412C70.8402 77.0569 71.7597 76.9059 72.7478 76.9059C73.8731 76.9059 74.8612 77.1392 75.8493 77.5921C76.7406 78.0455 77.5371 78.665 78.1959 79.4173L76.4531 81.2288C76.0749 80.6196 75.5194 80.1408 74.8612 79.8565C74.268 79.5449 73.6128 79.3696 72.9432 79.3435C72.2737 79.3174 71.6068 79.4411 70.9912 79.7055C70.4678 79.9387 69.9822 80.2486 69.5502 80.625C69.1608 81.036 68.8284 81.4976 68.5621 81.9973C68.3247 82.5191 68.1985 83.0846 68.1916 83.6579C68.1916 84.2617 68.3288 84.7969 68.5621 85.3321C68.7954 85.8673 69.0973 86.3202 69.5502 86.7044C69.9345 87.075 70.3873 87.3769 70.9912 87.6102C71.5264 87.8298 72.1302 87.9807 72.734 87.9807C73.5712 87.9807 74.2436 87.8435 74.8612 87.4592C75.465 87.075 76.0002 86.6221 76.3707 86.0183L78.1959 87.8298V87.8298ZM89.3531 90.1902H86.5398L85.634 87.2259C85.5517 86.924 85.4007 86.6221 85.2498 86.3202C85.1399 86.0492 84.96 85.8124 84.7283 85.634C84.521 85.4123 84.2542 85.2551 83.9598 85.1812C83.6384 85.088 83.3062 85.0373 82.9717 85.0302H82.066V90.1902H79.5683V77.1255H84.7283C85.2498 77.1255 85.785 77.1941 86.2379 77.4274C86.6907 77.6607 87.1436 77.8803 87.4592 78.1822C87.8298 78.4841 88.0631 78.9507 88.2827 79.4036C88.5159 79.8565 88.5846 80.3917 88.5846 80.9132C88.5846 81.2974 88.516 81.6817 88.4473 82.0522C88.2827 82.4365 88.1317 82.7384 87.8984 83.0403C87.6868 83.3489 87.4327 83.6261 87.1436 83.8637C86.8455 84.0904 86.5176 84.2751 86.1693 84.4126C86.5398 84.5499 86.924 84.7832 87.1436 85.0988C87.3769 85.387 87.6102 85.6889 87.7612 86.1555C87.8298 86.2927 87.8984 86.526 87.9807 86.677C88.0631 86.828 88.1317 87.0613 88.214 87.2946L88.4336 87.9807C88.5189 88.2402 88.6244 88.4926 88.7493 88.7355L89.0512 89.6413C89.1198 89.7785 89.1884 90.0118 89.3531 90.1765V90.1902ZM86.0869 81.0779C86.0869 80.7759 86.0183 80.474 85.936 80.2545L85.4831 79.5683L84.7969 79.1154C84.495 79.0331 84.2617 78.9645 83.9735 78.9645H82.1483V83.054H83.9598C84.2617 83.054 84.5773 82.9717 84.7969 82.9031C85.0988 82.8207 85.3321 82.6698 85.4831 82.5188C85.6961 82.3725 85.8552 82.1604 85.936 81.915C86.0183 81.6954 86.0869 81.3798 86.0869 81.0916V81.0779ZM99.5084 90.1902H90.945V77.1255H99.4947V79.2526H93.3603V82.3541H99.4261V84.4126H93.3603V87.9807H99.4947V90.1765L99.5084 90.1902ZM113.095 83.6579C113.108 85.3419 112.486 86.9691 111.352 88.214C110.811 88.8216 110.134 89.292 109.376 89.5864C108.591 89.9561 107.731 90.1348 106.864 90.1079H101.416V77.0706H106.864C107.731 77.0437 108.591 77.2224 109.376 77.5921C110.13 77.9764 110.816 78.4155 111.352 78.9645C111.873 79.5683 112.326 80.2545 112.642 81.0092C112.938 81.8609 113.091 82.756 113.095 83.6579V83.6579ZM110.515 83.5892C110.515 82.9717 110.432 82.3679 110.213 81.8464C110.009 81.3262 109.726 80.8403 109.376 80.4054C108.991 80.0212 108.552 79.6369 108.003 79.4173C107.432 79.1673 106.815 79.0366 106.192 79.0331H103.996V88.0631H106.192C106.878 88.0631 107.482 87.9807 108.003 87.7612C108.552 87.5279 108.991 87.2259 109.376 86.8417C109.76 86.4712 110.062 86.0183 110.199 85.4693C110.364 84.8792 110.515 84.2617 110.515 83.5892V83.5892ZM117.568 90.1765H115.057V77.1392H117.568V90.1765ZM128.945 79.4173H125.377V90.1902H122.797V79.4173H119.229V77.1255H128.945V79.4036V79.4173Z" fill="#283947"/>
</g>
<defs>
<clipPath id="clip0_1667_6108">
<rect width="129" height="90.4372" fill="white"/>
</clipPath>
</defs>
</svg>
