<svg width="130" height="40" viewBox="0 0 130 40" fill="none" xmlns="http://www.w3.org/2000/svg">
<g clip-path="url(#clip0_1667_6075)">
<path d="M110.228 14.0539C111.513 14.0488 112.761 14.4792 113.77 15.2748L113.825 15.318L113.874 15.3567C114.173 15.6016 114.447 15.8758 114.691 16.1752L128.628 30.1169V23.8849L119.307 14.5495L117.201 12.4442C115.907 11.1525 114.291 10.2322 112.52 9.77953C106.924 8.34945 101.204 11.844 100.042 17.5098C99.5561 19.8803 99.9114 22.3461 101.047 24.4829C102.183 26.6196 104.028 28.2935 106.265 29.2167C108.502 30.1398 110.991 30.2543 113.303 29.5405C115.615 28.8267 117.606 27.3293 118.933 25.3059L119.161 24.9262L119.242 24.7876L119.827 23.844L116.601 20.6155L116.585 20.636L115.096 22.9095C114.561 23.7574 113.813 24.451 112.928 24.9216C112.043 25.3924 111.05 25.6244 110.048 25.5945C109.046 25.5645 108.069 25.2738 107.214 24.751C106.358 24.2284 105.654 23.4916 105.17 22.6133C104.687 21.7351 104.44 20.7461 104.455 19.7436C104.471 18.7412 104.747 17.7601 105.257 16.897C105.767 16.0341 106.493 15.319 107.364 14.8222C108.235 14.3257 109.221 14.0648 110.223 14.0653L110.228 14.0539Z" fill="#004882"/>
<path d="M124.848 17.2779L124.856 17.2687L129.921 9.25656H124.699L121.656 14.0698L121.643 14.0902L124.848 17.2779Z" fill="#C20C38"/>
<path d="M1.4471 14.1634C2.15629 12.6732 3.27035 11.4126 4.66198 10.5256C6.025 9.67588 7.60309 9.23483 9.20916 9.25472C10.5143 9.22815 11.8055 9.52827 12.9651 10.1278C13.9881 10.6542 14.8516 11.4446 15.4661 12.4173V9.54797H21.6799V29.8262H18.3263C17.5665 29.8237 16.8387 29.5201 16.3025 28.9817C15.7664 28.4434 15.4656 27.7144 15.4661 26.9547C14.8348 27.9222 13.9649 28.7107 12.9402 29.2441C11.7788 29.8457 10.485 30.1459 9.17735 30.1172C7.58191 30.1323 6.01642 29.6836 4.67112 28.8258C3.27848 27.9261 2.16496 26.6551 1.45617 25.1563C0.667986 23.5693 0.273926 21.7337 0.273926 19.6496C0.273926 17.5654 0.665006 15.7367 1.4471 14.1634ZM14.1656 16.0163C13.7598 15.5923 13.2726 15.2546 12.7331 15.0233C12.1937 14.792 11.6132 14.6719 11.0262 14.6702C10.4393 14.6685 9.85808 14.7852 9.31732 15.0134C8.77657 15.2416 8.28741 15.5766 7.87913 15.9982C7.02576 16.8834 6.59905 18.1005 6.59905 19.6496C6.59905 21.1987 7.02881 22.4287 7.8882 23.3396C8.2908 23.7692 8.77695 24.1119 9.31681 24.3467C9.85666 24.5816 10.4388 24.7036 11.0275 24.7053C11.6163 24.707 12.1991 24.5883 12.7403 24.3566C13.2815 24.1249 13.7696 23.785 14.1747 23.3578C15.0341 22.462 15.4646 21.2381 15.4661 19.6859C15.4676 18.1339 15.0341 16.9107 14.1656 16.0163ZM29.665 0.0947266V29.8265H23.4513V2.9322L29.665 0.0947266ZM40.1692 10.1277C41.3231 9.52613 42.6105 9.22655 43.9115 9.25693C45.5176 9.23708 47.0957 9.67816 48.4587 10.5279C49.8504 11.4154 50.9651 12.6758 51.6758 14.1656C52.4625 15.739 52.8558 17.5677 52.8558 19.6518C52.8558 21.736 52.4625 23.5715 51.6758 25.1585C50.9655 26.6571 49.8514 27.9278 48.4587 28.828C47.1002 29.6903 45.5204 30.139 43.9115 30.1195C42.6165 30.1457 41.3358 29.8455 40.1874 29.2464C39.1694 28.7195 38.3007 27.9446 37.6613 26.9933V39.4981H31.4453V9.54797H37.6613V12.4173C38.2887 11.4529 39.1519 10.6649 40.1692 10.1277ZM45.2507 15.9981C44.8417 15.5676 44.3473 15.2271 43.7992 14.9984C43.2511 14.7698 42.6614 14.6581 42.0676 14.6704C41.4784 14.6613 40.8938 14.7765 40.352 15.0084C39.8103 15.2403 39.3234 15.5837 38.9232 16.0163C38.0638 16.9121 37.6341 18.1353 37.6341 19.6859C37.6341 21.2365 38.0638 22.4605 38.9232 23.3578C39.331 23.7841 39.8211 24.123 40.3639 24.354C40.9067 24.585 41.4907 24.7033 42.0806 24.7016C42.6705 24.6999 43.2539 24.5783 43.7953 24.3442C44.3368 24.1101 44.825 23.7683 45.2302 23.3396C46.1017 22.4302 46.5375 21.2002 46.5375 19.6496C46.5375 18.099 46.1086 16.8818 45.2507 15.9981ZM72.695 11.6377C74.1036 13.1762 74.8072 15.2899 74.8072 17.9789V29.8265H68.6236V18.8155C68.6236 17.4513 68.2724 16.3972 67.5707 15.6529C66.869 14.9087 65.9237 14.5298 64.7354 14.5162C63.5486 14.5162 62.6035 14.8951 61.9002 15.6529C61.1969 16.4108 60.846 17.465 60.8476 18.8155V29.8265H54.6315V2.9322L60.8476 0.0947266V12.2721C61.5135 11.3471 62.406 10.6089 63.4395 10.1281C64.585 9.5836 65.8406 9.31052 67.1087 9.33008C69.4283 9.33008 71.2904 10.0993 72.695 11.6377ZM77.7624 14.1636C78.473 12.6739 79.5876 11.4135 80.9792 10.5259C82.3424 9.67616 83.9207 9.23508 85.5269 9.25498C86.8335 9.22635 88.1264 9.52571 89.2874 10.1257C90.3107 10.6517 91.1743 11.4423 91.7884 12.4152V9.54823H97.9973V29.8265H94.6437C93.8821 29.8264 93.1517 29.5239 92.6132 28.9854C92.0747 28.4469 91.7722 27.7165 91.7722 26.9549C91.1417 27.923 90.2717 28.7116 89.2466 29.2444C88.0881 29.8452 86.7973 30.1454 85.4926 30.1175C83.8971 30.1329 82.3315 29.6842 80.9864 28.8261C79.591 27.9269 78.4744 26.656 77.7624 25.1565C76.9758 23.5695 76.5825 21.734 76.5825 19.6498C76.5825 17.5657 76.9758 15.737 77.7624 14.1636ZM90.4945 16.0166C90.0887 15.5925 89.6015 15.2547 89.062 15.0235C88.5227 14.7922 87.9422 14.672 87.3554 14.6704C86.7683 14.6687 86.187 14.7855 85.6462 15.0136C85.1053 15.2417 84.6161 15.5767 84.2078 15.9985C83.3474 16.8836 82.9165 18.1007 82.9165 19.6498C82.9165 21.1989 83.3474 22.4289 84.2078 23.3399C84.6105 23.7693 85.0967 24.112 85.6364 24.347C86.1764 24.5819 86.7587 24.7039 87.3476 24.7056C87.9362 24.7072 88.519 24.5885 89.0602 24.3568C89.6013 24.1251 90.0894 23.7852 90.4945 23.3581C91.3536 22.4623 91.7838 21.2383 91.7838 19.6863C91.7838 18.1341 91.3536 16.9109 90.4945 16.0166Z" fill="#004882"/>
</g>
<defs>
<clipPath id="clip0_1667_6075">
<rect width="129.647" height="39.4579" fill="white" transform="translate(0.273926 0.0947266)"/>
</clipPath>
</defs>
</svg>
