<svg width="129" height="37" viewBox="0 0 129 37" fill="none" xmlns="http://www.w3.org/2000/svg">
<g clip-path="url(#clip0_1667_6093)">
<path fill-rule="evenodd" clip-rule="evenodd" d="M109.244 30.7392C108.716 30.5708 108.255 30.3759 107.866 30.1538L106.027 35.0804C106.849 35.4479 107.701 35.7425 108.575 35.961C109.465 36.1831 110.44 36.2941 111.498 36.2941C113.169 36.2941 114.624 35.9446 115.864 35.2489C117.104 34.5531 118.085 33.3533 118.808 31.6564L129 7.51796H121.483L117.389 19.4175L113.256 7.51796H105.318L113.965 27.0187L112.796 29.6536C112.571 30.1545 112.298 30.5001 111.979 30.6951C111.66 30.8906 111.237 30.9878 110.705 30.9878C110.262 30.9878 109.774 30.907 109.244 30.7392ZM97.5588 18.7722C97.9758 18.7318 98.3959 18.6946 98.8122 18.6681V22.4687C98.4496 22.7469 98.0492 22.972 97.6232 23.1374C97.1892 23.3052 96.7123 23.3859 96.1811 23.3859C95.4589 23.3859 94.8943 23.2011 94.4906 22.8245C94.0875 22.4485 93.8825 21.9679 93.8825 21.3831C93.8825 20.8255 94.0642 20.3183 94.4269 19.8578C94.7902 19.4005 95.4015 19.0983 96.265 18.9602C96.6933 18.8783 97.125 18.8156 97.5588 18.7722ZM99.2727 26.3103L99.8575 27.8993H105.997V15.0353C105.997 12.3064 105.204 10.2935 103.615 8.99972C102.029 7.70215 99.8979 7.05684 97.2264 7.05684C95.3043 7.05684 93.6541 7.33629 92.2764 7.89392C90.9098 8.44185 89.6461 9.21807 88.5395 10.1894L91.7958 13.8222C92.4278 13.3171 93.1224 12.8956 93.8623 12.5682C94.5824 12.2612 95.358 12.1057 96.1408 12.1115C96.8637 12.1115 97.492 12.3064 98.0193 12.6963C98.5473 13.0861 98.8122 13.6973 98.8122 14.5344V15.0353C98.1079 15.0679 97.4044 15.116 96.7022 15.1797C95.8711 15.2578 95.0429 15.363 94.2187 15.4951C93.2759 15.6245 92.3513 15.8626 91.4633 16.2048C90.5991 16.5372 89.8396 16.9706 89.1849 17.498C88.5377 18.0186 88.0113 18.6736 87.6419 19.4175C87.2659 20.1701 87.0773 21.0507 87.0773 22.0517C87.0773 23.0263 87.242 23.8899 87.5782 24.6393C87.9014 25.3786 88.3778 26.0408 88.9761 26.5822C89.5747 27.1266 90.2799 27.5366 91.0867 27.8154C91.8929 28.0905 92.7704 28.2318 93.7178 28.2318C94.9713 28.2318 96.0701 28.0438 97.0182 27.6672C97.9625 27.2944 98.7151 26.8408 99.2727 26.3097V26.3103ZM54.5946 2.36868L63.6277 27.8987H69.1826L72.3549 17.2053L75.5714 27.8987H81.1667L88.3951 7.51733H80.9175L77.9098 18.3344L74.7779 7.5167H70.0159L66.8839 18.335L61.6621 2.36931H54.5946V2.36868ZM41.6567 7.5167V12.6117H44.5395V21.5503C44.5395 22.5785 44.6442 23.5095 44.8524 24.3466C45.0606 25.1831 45.417 25.8921 45.9184 26.4769C46.4187 27.0616 47.0804 27.5158 47.9004 27.835C48.7236 28.1542 49.7323 28.3157 50.9283 28.3157C52.3502 28.3157 53.5966 28.1472 54.669 27.8148C55.7407 27.4786 56.7355 26.9948 57.6527 26.3526L55.7742 21.9237C55.3902 22.2164 54.9769 22.4686 54.5409 22.6762C54.0935 22.8968 53.6015 23.0118 53.1027 23.0125C52.5716 23.0125 52.2322 22.8175 52.0776 22.4277C51.9263 22.0379 51.8493 21.4935 51.8493 20.7977V12.6124H56.7519L54.9478 7.51733H51.8493V2.37941H44.5401V7.51733H41.6567V7.5167ZM33.9949 12.6319C34.5658 13.2564 34.8919 14.1143 34.9758 15.2024H28.628C28.739 14.144 29.1087 13.2936 29.7338 12.6521C30.3621 12.0137 31.0913 11.6907 31.9278 11.6907C32.7346 11.6907 33.4234 12.0061 33.9949 12.6319ZM29.7774 21.947C29.0381 21.2651 28.6419 20.3107 28.5845 19.0838H41.8251C41.798 14.9911 40.8871 11.9633 39.0893 10.0002C37.2947 8.03837 34.8787 7.05684 31.8439 7.05684C30.3691 7.05684 28.9977 7.29213 27.731 7.76587C26.4637 8.2396 25.3718 8.93538 24.4508 9.85573C23.5298 10.7736 22.8076 11.8926 22.2802 13.2167C21.7491 14.5407 21.4867 16.049 21.4867 17.7496C21.4867 19.5039 21.7623 21.0399 22.32 22.364C22.8782 23.6843 23.6308 24.7863 24.5782 25.6606C25.5226 26.5412 26.6284 27.2029 27.8988 27.6464C29.1655 28.0905 30.5198 28.315 31.9682 28.315C33.1648 28.315 34.2435 28.2179 35.2042 28.023C36.1655 27.828 37.0159 27.5492 37.752 27.1865C38.4508 26.8506 39.11 26.4381 39.7176 25.9564C40.2891 25.496 40.7963 24.9882 41.2435 24.4305L36.7736 20.922C36.2122 21.6178 35.6079 22.1356 34.9557 22.4674C34.3002 22.8043 33.5143 22.9689 32.5964 22.9689C31.4547 22.9689 30.5135 22.6296 29.7767 21.947H29.7774ZM8.22584 22.909C7.93315 22.8649 7.63099 22.8049 7.32505 22.7172V12.8609C7.66127 12.7499 7.9937 12.659 8.32992 12.5922C8.68697 12.5197 9.0506 12.4846 9.41491 12.4875C10.5844 12.4875 11.5527 12.9044 12.3185 13.7377C13.0818 14.5748 13.4647 15.8686 13.4647 17.6229C13.4647 19.4339 13.0749 20.7781 12.2952 21.6556C11.5155 22.5324 10.5005 22.9689 9.24712 22.9689C8.85728 22.9689 8.5179 22.9488 8.22521 22.909H8.22584ZM9.10266 7.20192C8.50158 7.29393 7.90762 7.42756 7.32505 7.60186V0.0403748H0.019043V26.6857C1.2693 27.16 2.63374 27.5562 4.10919 27.876C5.58781 28.1983 7.2443 28.3598 9.07932 28.3598C10.7491 28.3598 12.2882 28.1346 13.6968 27.6912C15.101 27.2439 16.321 26.5683 17.3492 25.6612C18.3812 24.7604 19.1811 23.6111 19.7526 22.217C20.3235 20.8255 20.6092 19.1822 20.6092 17.2904C20.6092 15.8686 20.401 14.5344 19.9809 13.281C19.5646 12.0276 18.959 10.942 18.1661 10.0216C17.3732 9.10381 16.3885 8.37838 15.219 7.85039C14.0494 7.32304 12.7285 7.05747 11.2537 7.05747C10.4438 7.05747 9.72716 7.10415 9.10266 7.20192Z" fill="black"/>
</g>
<defs>
<clipPath id="clip0_1667_6093">
<rect width="129" height="36.3345" fill="white"/>
</clipPath>
</defs>
</svg>
