<svg width="129" height="38" viewBox="0 0 129 38" fill="none" xmlns="http://www.w3.org/2000/svg">
<path d="M36.7616 20.5293H27.4695H27.4515L27.404 20.579L27.4289 20.6197L27.2933 20.6671L27.2188 20.7688H27.1103L27.0606 20.7846V20.814L27.0042 20.8795V20.9269L27.0313 20.9473L26.9635 21.0489L26.9002 21.1302V21.2364L26.8415 21.3629L26.6969 21.573L26.6111 21.6092H26.5613L26.5817 21.6318V21.6928L26.5546 21.7334L26.4687 21.9978L26.4032 22.165V22.2576L26.5162 22.3547L26.5998 22.4496H26.654L26.7059 22.5965L26.6833 22.6439L26.6495 22.6326L26.602 22.6642L26.5772 22.7614V22.9082L26.6359 22.967V23.0619L26.5817 23.107L26.5952 23.1951L26.6382 23.3013H26.6156L26.6404 23.351L26.6562 23.4278L26.7037 23.4685L26.663 23.534L26.7014 23.5792L26.7421 23.6989L26.7285 23.7599L26.8709 23.8955L26.9748 23.9113L27.0606 23.9836V24.0243L27.09 24.0423L27.0764 24.1372L27.0539 24.1847L27.0764 24.2027L26.9929 24.3202V24.3632L27.0087 24.3925V24.4174L26.977 24.4467L26.9951 24.5891L27.0403 24.6749L27.0177 24.6998V24.8014L27.0403 24.8263V24.9257L26.9974 24.9664L27.0132 25.0725L26.9838 25.2713H26.968L26.9906 25.3052V25.4837H26.9296V25.5063L26.9499 25.5357H27.029L27.0516 25.5537L27.0697 25.7074L27.029 25.7661L26.9861 25.7887L27.0109 25.8249V25.8633H26.959L26.9025 25.922L26.9183 25.9423L26.9364 25.9265H26.9861L26.9499 25.9785V26.0598H26.9002L26.8121 26.1705V26.2202L26.733 26.3287H26.6675V26.4032L26.4009 26.5478H26.3625L26.3422 26.6043L26.0869 26.7398H25.9898V26.7602L25.8723 26.8144L25.7119 26.9206L25.6735 26.8934V26.9432L25.5763 27.0629L25.5266 27.0855L25.4995 27.02L25.4815 27.1239L25.4363 27.1374L25.4205 27.1962L25.2601 27.2933V27.334L25.2194 27.3701L25.181 27.3814V27.4379H25.0771L24.8511 27.5802V27.6706L24.7811 27.7226H24.6862L24.6456 27.7745L24.571 27.7271H24.5281V27.7881L24.5665 27.8333V27.8965L24.5371 27.9372V27.9959L24.4942 28.0592L24.6094 28.2151V28.2693L24.5597 28.31L24.5981 28.328L24.641 28.3981V28.493L24.6885 28.5811L24.6681 28.8296L24.6907 28.9177H24.7201V28.8477L24.7653 28.7528V28.8364H24.7834V28.9448L24.7517 28.9855V29.0939L24.7698 29.1097L24.7224 29.2362V29.304L24.6862 29.3492V29.4305H24.6636L24.6794 29.5006L24.7404 29.4644L24.754 29.5096L24.7043 29.5842L24.6794 29.6881L24.5349 29.8417L24.275 29.9592L23.9249 30.0292L23.7893 30.158L23.6877 30.1828L23.656 30.2303L23.6063 30.2709L23.577 30.3703H23.5363L23.4979 30.3952L23.516 30.4178L23.5544 30.4901V30.5624L23.5905 30.5149L23.647 30.533L23.6651 30.4652H23.6922V30.4991L23.6764 30.6121L23.6357 30.6776V30.7589L23.5882 30.8222H23.6108L23.5634 30.9668L23.5498 31.091L23.4911 31.2108L23.4527 31.3644L23.394 31.4344L23.3759 31.5045L23.2697 31.6287H23.2336L23.211 31.6626L23.1296 31.701L23.0912 31.7462L22.9941 31.8095L22.9466 31.9043L22.8676 31.9947V32.0331L22.8224 32.119H22.7456L22.6846 32.2364L22.5264 32.5324L22.3977 32.6521L22.3773 32.7651L22.3028 32.7967L22.2327 32.8803H22.1921L22.174 32.9119L21.756 33.3231H21.7063V33.3434L21.6386 33.4203L21.3652 33.5965L21.3065 33.6597L21.2093 33.6891V33.714L21.0557 33.7546L20.9698 33.8088H20.8795L20.8343 33.775H20.7123L20.6129 33.8066L20.57 33.8789L20.6287 33.9286V33.9512H20.4886L20.4073 33.9105H20.3418L20.2853 33.967L20.3102 34.0167L20.2853 34.0415L20.0933 34.0009L20.0391 33.958L19.8538 33.9128L19.7341 33.9354V33.9647L19.6708 33.9873L19.5782 33.9376H19.3636L19.3003 33.967L19.2822 34.0348L19.2393 34.0144L19.1896 34.028L19.1444 34.0641L19.1218 34.0958H19.0269L18.9637 34.1229L18.8462 34.0799L18.7513 34.1138L18.7332 34.1409L18.6361 34.1206L18.5502 34.2178L18.478 34.2313L18.4531 34.2901L18.4102 34.2742L18.3718 34.2923L18.173 34.1997L18.1323 34.2223V34.1274L18.0577 34.0867L17.999 34.1161L17.9629 34.1003L17.9945 34.0732L17.9741 33.9896L17.8815 33.9738L17.8137 34.0325V34.1048L17.764 34.0664V33.9851L17.7912 33.9173L17.7731 33.8179L17.8273 33.7275L17.7573 33.601L17.6872 33.5377L17.6217 33.4361V33.3322L17.6646 33.2937L17.703 33.3344H17.7392L17.7866 33.2825L17.8092 33.1605L17.7663 33.0249V32.9639L17.6533 32.7741V32.686L17.5426 32.5414L17.4907 32.3155L17.3958 32.0806V31.9676L17.3099 31.7236L17.1812 31.6287L17.1586 31.4999L17.023 31.4028L17.0004 31.3463L16.9056 31.2514L16.8084 31.0594L16.7361 30.96V30.8064L16.6729 30.7363V30.655L16.7158 30.6234L16.6796 30.5511L16.6254 30.5217L16.596 30.3139L16.5486 30.2529L16.6051 30.2167L16.5689 30.1015L16.5825 29.9321L16.4627 29.618V29.3108L16.4063 29.1052L16.456 29.0826V28.9177L16.2459 28.6127V28.4997L16.0448 28.2151L16.0154 28.0366L15.8166 27.5848L15.6901 27.3588L15.4642 27.1171L15.4416 26.776V26.7353L15.4597 26.6088V26.4145L15.4777 26.288V26.1434L15.5884 26.0101L15.611 25.8587L15.7082 25.73V25.4092L15.7443 25.3798V25.2465L15.9702 25.0522V24.9551L16.1465 24.8218H16.1939L16.352 24.5258V24.1756L16.3023 24.1146V24.0491L16.151 23.8006V23.6967L16.09 23.5995V23.455L16.0177 23.4188L16.1442 23.2561L16.1623 23.098L16.0425 22.9286V22.6168L15.8166 22.3683V22.3118L15.7737 22.2598L15.8889 22.1966L15.8144 22.1717H15.6991L15.6788 22.1243L15.6585 22.0768L15.7037 21.9933L15.6765 21.878L15.6268 21.8261L15.5817 21.7741L15.5884 21.6883L15.5252 21.6182V21.5459L15.4054 21.4691L15.3625 21.4262L15.2835 21.3494L15.2654 21.3313L15.1953 21.3042L15.1908 21.2364L15.0462 21.1664L15.0078 21.0783L14.8271 20.9337L14.7187 20.8185L14.748 20.7981L14.6464 20.7123L14.6034 20.6197L14.5424 20.5587V20.4367L14.4701 20.344V20.2808L14.425 20.2446L14.3414 20.0684V20.0278L14.4385 20.0594L14.5153 19.9961L14.5334 19.7702L14.5447 19.6595L14.5899 19.7047L14.7661 19.6618L14.6418 19.6324L14.5628 19.5059L14.6486 19.4923V19.3974V19.3749L14.5492 19.3229L14.6486 19.1331L14.7751 18.9908L14.7458 18.9208L14.7616 18.9049L14.8248 18.8439L14.7661 18.7829L14.8203 18.6429L14.8068 18.4892L14.7345 18.3876V18.2746L14.7616 18.2227L14.7006 18.1278L14.5831 18.1775L14.547 18.1368H14.4769L14.4295 17.8906L14.3662 17.9244L14.312 17.8996L14.2826 17.9177L14.2149 17.8476L14.1742 17.9606L14.0725 17.9809L14.007 17.9425L13.8218 18.0103L13.7811 17.9854L13.702 18.0329L13.3157 18.0555L13.1711 18.0148L13.0672 17.9222L13.022 17.7821L12.9678 17.755V17.6217L12.8684 17.4274L12.7057 17.2693L12.412 17.1134L12.2855 17.1654L12.1296 17.1337H12.1138L11.8382 17.2264L11.6958 17.2083H11.6529L11.4383 17.3416H11.4044L11.1785 17.3687L10.9887 17.4613L10.7809 17.6353L10.5391 17.6579L10.1935 17.8228L10.0376 17.7528L9.81168 17.7234L9.79135 17.6872L9.73487 17.5811L9.65806 17.5991L9.63998 17.6985L9.46603 17.6217L9.26496 17.6872H8.7363L8.58494 17.7076V17.7482L8.30706 17.8476L8.27769 17.8883H8.18958L8.04951 18.008L8.01336 17.9945L7.618 17.8476L7.31301 17.6217H7.22942L6.98091 17.3732H6.96284L6.81373 17.2738H6.75273L6.65107 17.127L6.58555 17.0976L6.61492 17.0411H6.60363L6.55166 16.9824H6.4003L6.18793 16.8717L6.09757 16.8491L6.12016 16.7994L6.06142 16.7361L6.01172 16.6864L6.0456 16.6186V16.6006L5.96427 16.6299L5.87391 16.5328V16.4424L5.83324 16.3159H5.75643L5.72706 16.2526L5.78128 16.151L5.7248 16.1194V16.0584L5.76772 15.9838L5.70898 15.9364L5.60054 15.8799L5.56891 15.7579H5.48532L5.44918 15.7217V15.6585L5.48081 15.6268L5.42207 15.5884L5.38592 15.6404L5.32492 15.6156H5.23455L5.14419 15.4913L5.18033 15.3444L5.11708 15.2744L5.02219 15.3015L5.00186 15.2789V15.2112L4.83242 15.2292L4.9273 15.1276H4.88212L4.90471 15.0914L4.86856 15.0508H4.80305L4.7782 15.0169H4.97023L5.00412 14.992L4.89793 14.9107L4.80079 14.931L4.69912 14.9672H4.65394L4.63135 14.9107H4.55002L4.47772 14.8384L4.55002 14.7819H4.4958H4.3625L4.32862 14.7209V14.6441L4.29247 14.6012L4.36025 14.6192L4.40317 14.6328L4.48902 14.5786L4.35347 14.5311L4.2631 14.5786L4.24277 14.5492L4.28117 14.5063V14.3865L4.23599 14.3278L4.30602 14.2578L4.38736 14.3617H4.4958L4.5568 14.3052L4.46643 14.3301L4.3625 14.2781L4.34443 14.2171L4.33314 14.1855L4.38736 14.1448L4.29247 14.077H4.3241V13.9957L4.24954 13.9844L4.16144 13.8308L4.02588 13.7201L4.27666 13.4942L4.38058 13.3067L4.39639 13.1756L4.41898 13.013L4.48224 12.7644L4.57939 12.6289L4.6065 12.342L4.52743 11.9285L4.41672 11.7478L4.46191 11.7139H4.51839L4.54776 11.5784L4.51839 11.4903L4.57035 11.4383L4.45513 11.2666L4.40769 11.305L4.36928 11.296L4.33539 11.1988L4.24729 11.296V11.1423L4.29247 11.0475V11.0316V10.9006L4.33539 10.8148V10.7154L4.39187 10.6544H4.44158L4.56809 10.4284L4.63813 10.4013L4.58842 10.3652V10.3268L4.74883 10.1144V10.0534L4.84823 9.8275L4.90697 9.79587L5.09448 9.62191L5.10804 9.50669L5.35429 9.14974L5.29103 9.03678L5.39947 8.97352L5.42659 8.89445L5.70447 8.74986H5.77676V8.58494L5.93264 8.35902L6.02753 8.22347L6.41837 8.15117L6.69625 7.90718H6.82277L6.93799 7.78293L6.9651 7.67222L7.21587 7.38757L7.24298 7.27235L7.19779 7.21587L7.16391 7.18198L7.21587 7.03287L7.15035 6.89958V6.81373L7.25427 6.60137L7.41468 6.45678V6.35963L7.35142 6.22182L7.53215 6.09079L7.58863 6.00494L7.68578 5.97331L7.84392 5.86713H7.90718L8.01788 5.74965L8.16473 5.69995L8.25284 5.63895H8.29576L8.4765 5.47177L8.53072 5.36785L8.54879 5.20292L8.63464 5.08997L8.65046 4.86405L8.72727 4.7782H8.79053L8.82215 4.74883L8.90123 4.72172L8.92382 4.75109L8.91026 4.77368V4.81886L8.92834 4.88212L8.97126 4.91601L9.08196 5.03349L9.16781 5.05156L9.28981 5.03349L9.3734 4.9883H9.43891L9.56769 5.02445L9.69646 4.99734L9.7665 4.92053H9.79587L9.8162 4.99734L9.8659 5.04704L10.0918 5.06511H10.1483H10.2545L10.3765 5.02671L10.4533 4.94312L10.4668 4.89567L10.5166 4.85049L10.6114 4.80079H10.7244L10.747 4.76916L10.7899 4.73979H10.8441L10.8712 4.76464H10.9142L10.9639 4.69912V4.63813L11.0588 4.57939H11.1152L11.2259 4.56357L11.4202 4.41447L11.5083 4.42802H11.662L11.7478 4.39865L11.8404 4.44835H11.9014L12.0031 4.34895L12.0799 4.37832H12.1635L12.2042 4.29699L12.2539 4.28569L12.3262 4.30828H12.3668L12.4504 4.32184L12.5566 4.30377L12.6063 4.31732H12.7147L12.7667 4.39865H12.8571L12.9384 4.33539H13.0017L13.0536 4.35573L13.1033 4.29247L13.1847 4.27666V4.22243L13.2773 4.19984L13.3338 4.24277V4.30602L13.4716 4.32184L13.5394 4.25406V4.2134L13.6478 4.2518L13.7359 4.32862L13.9053 4.27891L13.9641 4.29247L14.077 4.26988L14.0974 4.29473L14.2013 4.20436L14.3459 4.13207L14.4521 4.10947L14.4927 4.16821V4.11625L14.5808 4.09818L14.6305 4.14336V4.2134L14.6712 4.22695L14.7299 4.36476L14.7706 4.38736L14.8181 4.33765L14.9604 4.20662L14.9965 4.23373V4.3128L14.9175 4.43028V4.50257L14.8203 4.57035L14.8022 4.67427L14.8994 4.80531L15.0169 4.85049V4.98152L15.0462 5.00186L15.062 5.05834L15.0191 5.10352L15.053 5.15096L15.0236 5.19615L14.9084 5.30911L14.7096 5.44918L14.6712 5.56665L14.7345 5.68187L14.861 5.76998L14.9197 5.75643L14.9378 5.81743L14.992 5.84228L15.0214 5.81743V5.78806L15.0462 5.76998L15.1072 5.80387V5.86035L15.1185 5.90328L15.2383 5.97557H15.2857L15.3761 5.99364L15.4529 6.06594L15.6494 6.10886L15.9296 6.0569L16.0403 6.09982H16.2662L16.4018 6.18793L16.657 6.22408L16.7587 6.35737V6.48163L16.883 6.71884L17.0163 6.78662H17.1699L17.2128 6.76177L17.3416 6.77758L17.6398 6.90184L17.825 6.99673L17.9448 7.09387L18.0984 7.22039L18.2724 7.29042L18.356 7.25879L18.4915 7.14357L18.5051 7.10517L18.609 7.00124L18.6429 6.91088L18.5932 6.75047L18.5209 6.63751L18.5344 6.43193L18.5841 6.39352L18.609 6.28508L18.7061 6.19019L18.8756 6.10886L19.0721 6.09079L19.1964 6.02753H19.2257L19.3116 6.07046L19.3523 6.03431L19.3861 6.05238L19.5262 6.08853H19.6121L19.7815 6.18116V6.23086L19.7499 6.24215L19.7815 6.28734L19.9238 6.32574H20.0278L20.082 6.37545L20.3508 6.40708L20.4254 6.39578L20.4977 6.40708L20.5542 6.47259L20.5903 6.58329H20.631H20.8298L20.9834 6.633L21.2952 6.65785L21.4239 6.68496L21.5369 6.76403L21.5843 6.73466H21.6295L21.7447 6.80695H21.8803H21.9752L22.1198 6.89732H22.2531L22.2689 6.86117L22.366 6.77758L22.4699 6.7437L22.5196 6.71658L22.6281 6.65785L22.6755 6.62396H22.7885H22.8676L22.8043 6.65107H22.7275V6.66914L22.7546 6.69625L22.8427 6.66011H22.9195H22.9941V6.633L22.9353 6.6217L22.9579 6.59685L23.0935 6.633L23.1748 6.66011H23.2403L23.2742 6.69399L23.2358 6.71207L23.2539 6.7821L23.3352 6.82729L23.3894 6.90862V6.85666L23.3149 6.77758L23.333 6.70981L23.4798 6.81147L23.6786 6.75725L23.9339 6.80018L24.0423 6.75725L24.0943 6.68722L24.1372 6.70755L24.2163 6.82277L24.257 6.97187L24.3699 7.14357L24.458 7.35142L24.4242 7.44856L24.4761 7.58412L24.4603 7.60897L24.3993 7.83489V7.92074L24.3519 8.04047L24.388 8.07662L24.3586 8.21895L24.3044 8.27091L24.2886 8.31835V8.29576L24.1824 8.23702L23.9904 8.0337L23.9678 7.95914L23.8616 7.9117L23.8232 7.83263V7.75356L23.6673 7.62252V7.57282L23.6312 7.5299L23.6041 7.42823H23.5657L23.5498 7.40338L23.5318 7.43049V7.48471V7.53893L23.6154 7.64737V7.73774L23.7645 7.91396L23.7825 7.97722L24.0085 8.17377L24.0423 8.23702L24.0265 8.30028V8.35902L24.1621 8.50587V8.55105L24.2027 8.60301L24.2186 8.75664L24.2615 8.82441V8.908L24.4919 9.2627L24.51 9.37566L24.5755 9.41858L24.7337 9.6445L24.7698 9.75068L24.815 9.8049V9.77779L24.8398 9.79813L24.9054 9.89979H24.9438L24.9889 9.94723H24.8715L24.8421 9.92238V9.95627L24.8692 10.0105V10.1099L24.8511 10.1664L24.9121 10.3765L25.0364 10.4556H25.1109L25.1606 10.433L25.2104 10.5391L25.2939 10.564L25.3188 10.6137L25.4114 10.7086L25.4815 10.7357V10.7696V10.8057L25.5018 10.8374V10.8577L25.5153 10.8758V10.8916L25.5312 10.9142L25.5583 11.0249L25.6351 11.1175V11.1559H25.617L25.6057 11.1311L25.5741 11.0926L25.5605 11.1062V11.1785L25.6577 11.4654L25.678 11.6236L25.6554 11.7704L25.7096 11.9421L25.7819 12.0799L25.8474 12.0935L26.0237 12.2109V12.2878H26.105L26.1908 12.3329V12.3894H26.2067L26.2993 12.4888L26.4665 12.9271L26.5207 13.214H26.5501L26.5726 13.3202V13.3564L26.6269 13.3744L26.6608 13.458L26.6811 13.5823L26.7511 13.6004V13.4874H26.733V13.4061L26.7624 13.3925L26.8347 13.4964L26.8076 13.5258L26.8754 13.6275L26.9206 13.6749L26.9612 13.6478H27.02L27.0448 13.6636L27.0968 13.6455L27.1691 13.7269L27.2075 13.7743L27.3182 13.8014L27.343 13.8421L27.4786 13.9935L27.5373 14.0951L27.6187 14.129L27.6774 14.199H27.709V14.1764L27.7361 14.2126L27.8016 14.3798L27.8513 14.3933L27.9078 14.4656L27.8943 14.4905L27.9304 14.5695H27.9711L28.0163 14.5921L28.0479 14.5628L28.0615 14.5854H28.0818V14.6147L28.1744 14.7051H28.1993V14.7435L28.2128 14.8678L28.1722 14.8836L28.0976 14.9672H28.0411L28.0005 15.0282H27.9146L27.9598 15.0824H27.9869L28.0479 15.0553H28.1518L28.1654 15.0824L28.1902 15.1321H28.2151L28.4658 15.4371L28.4952 15.4981L28.5359 15.5094L28.6353 15.5997L28.7324 15.6223L28.8477 15.6088L28.8838 15.5636L28.9877 15.5003H29.0532L29.1865 15.3919H29.2272L29.2498 15.4145H29.3582L29.3966 15.4009L29.4757 15.4371L29.5932 15.4235L29.8349 15.2744L29.914 15.2586L29.9931 15.2925L30.0518 15.2744H30.1602L30.2709 15.2179H30.3975L30.4359 15.2405H30.4765L30.6708 15.2044L30.725 15.1366L30.8425 15.1208L30.8764 15.1502V15.1163L30.9984 15.1027L31.0707 15.0327H31.0843L31.1159 14.9762L31.1656 14.9288H31.1995V14.9107L31.2469 14.9446L31.3486 14.9807H31.396H31.4141L31.3712 15.0417L31.3463 15.105V15.1705L31.3237 15.2112L31.3418 15.245H31.4028V15.2676L31.3599 15.3038L31.326 15.3874L31.3599 15.4348L31.3734 15.5026L31.3441 15.5659H31.3983V15.5455H31.4231L31.448 15.593L31.4209 15.6065V15.5907H31.3689H31.335L31.2763 15.6901L31.3079 15.7421L31.2921 15.837L31.2673 15.8799V15.9838L31.1294 16.1758L31.0368 16.3746L30.9781 16.4469H30.9464H36.7842C36.8152 16.447 36.8448 16.4341 36.8659 16.4114C36.8869 16.3886 36.8974 16.3581 36.8949 16.3272C36.8949 16.2752 36.8813 16.2255 36.8746 16.1758C36.8362 15.8618 36.7887 15.55 36.7345 15.2405C36.7187 15.1456 36.7006 15.0485 36.6825 14.9536C36.6125 14.5921 36.5357 14.2329 36.4453 13.8782C36.4453 13.8511 36.4295 13.8263 36.4227 13.7992C36.3369 13.4693 36.2397 13.1417 36.1358 12.8187C36.1064 12.726 36.0771 12.6334 36.0454 12.543C35.937 12.2268 35.8195 11.915 35.702 11.6055C35.6885 11.5761 35.6795 11.5445 35.6659 11.5151C35.5303 11.1808 35.3835 10.8532 35.2299 10.5301C35.1892 10.4443 35.1463 10.3607 35.1056 10.2771C34.9716 10.006 34.8315 9.73939 34.6854 9.47732L34.5905 9.30336C34.4143 9.00214 34.2291 8.70091 34.0348 8.39968L33.8902 8.17377C33.729 7.93128 33.5618 7.69406 33.3886 7.46212L33.2102 7.2972C32.9955 7.01706 32.7764 6.74144 32.546 6.47485L32.4036 6.31445C32.2093 6.08853 32.0105 5.87616 31.8049 5.6638L31.6287 5.46725C31.3802 5.21648 31.1249 4.97023 30.8629 4.73301L30.7612 4.64716C30.5353 4.43706 30.2822 4.23599 30.036 4.03944L29.8101 3.86096C29.5344 3.6486 29.2543 3.44075 28.9674 3.2442L28.9471 3.22839C28.6511 3.02732 28.3484 2.83529 28.0434 2.65003L27.7881 2.50771C27.5192 2.35182 27.2481 2.20046 26.9725 2.05587L26.8279 1.97905C26.5116 1.81865 26.1863 1.66954 25.8587 1.52722L25.608 1.42329C25.3346 1.30807 25.0567 1.19737 24.7766 1.10023L24.5507 1.0189C24.2118 0.901419 23.8729 0.792977 23.5182 0.695832L23.2923 0.632574C23.0031 0.555762 22.7117 0.485727 22.4157 0.422469L22.1469 0.36373C21.7877 0.291436 21.4262 0.228179 21.058 0.178476L20.8772 0.155884C20.5587 0.115219 20.2469 0.0835902 19.9261 0.0587391L19.6279 0.0384063C19.2483 0.0158144 18.8688 0 18.4847 0H18.417C18.0555 0 17.6918 0.0158144 17.3258 0.0384063L16.944 0.070035C16.6864 0.0903678 16.4289 0.117478 16.1713 0.149107C16.0087 0.16944 15.8415 0.187513 15.6788 0.212364H15.6427C7.3505 1.51126 0.970607 8.22777 0.0994046 16.5757C0.0994046 16.6119 0.0994046 16.648 0.0994046 16.6842C0.0655166 16.9281 0.0474431 17.1699 0.0338879 17.4184C0.0338879 17.4907 0.0338879 17.563 0.0338879 17.6443C0 17.9177 0 18.2023 0 18.4892C0 18.5118 0 18.5344 0 18.557C0 18.8213 0 19.0812 0.0180736 19.3432L0.0316287 19.5691C0.0451839 19.7951 0.0609982 20.021 0.0835902 20.2605L0.0971454 20.4209C0.126515 20.6965 0.162662 20.9698 0.203327 21.2409C0.203327 21.3087 0.22366 21.3742 0.234956 21.442C0.268844 21.6679 0.30725 21.8713 0.350175 22.0836C0.36373 22.1559 0.377285 22.2282 0.3931 22.3095C0.44732 22.5761 0.508319 22.8427 0.576095 23.1048C0.576095 23.1341 0.591909 23.1658 0.600946 23.1951C0.661944 23.4211 0.72972 23.6628 0.799755 23.8932L0.867531 24.1192C0.937566 24.3451 1.00986 24.5484 1.09345 24.763C1.10926 24.806 1.12282 24.8511 1.13863 24.8941C1.23126 25.1448 1.33067 25.3933 1.43233 25.6396L1.51366 25.8271C1.59725 26.0191 1.6831 26.2112 1.77347 26.4032L1.86384 26.593C1.98131 26.8325 2.08975 27.0674 2.22531 27.3001L2.28179 27.3995C2.39249 27.6028 2.50771 27.8016 2.62744 28.0005L2.74492 28.1925C2.86466 28.3868 2.98665 28.5788 3.11317 28.7686C3.13576 28.8002 3.15609 28.8341 3.17869 28.868C3.32553 29.0939 3.47916 29.2995 3.63053 29.5119L3.75478 29.6768C3.8813 29.8417 4.01007 30.0066 4.1411 30.167C4.18403 30.2212 4.22469 30.2732 4.26988 30.3252C4.43706 30.5262 4.60876 30.725 4.78497 30.9193L4.87308 31.0165C5.02445 31.1814 5.18033 31.3418 5.33622 31.5022L5.49436 31.6604C5.66154 31.8253 5.83098 31.9857 6.00268 32.1438L6.07271 32.2093C6.267 32.3878 6.46807 32.5595 6.66914 32.7267L6.83406 32.86C6.99447 32.991 7.15939 33.122 7.32657 33.2486L7.48245 33.366C7.69256 33.5219 7.90718 33.6756 8.12406 33.8179L8.24832 33.8969C8.43131 34.0189 8.61657 34.1387 8.80408 34.2539L8.99611 34.3714C9.20396 34.4956 9.41406 34.6176 9.62643 34.7351L9.69194 34.7713C9.91786 34.8978 10.1619 35.0175 10.4013 35.1327L10.5956 35.2276C10.7877 35.318 10.9819 35.4038 11.1762 35.4897L11.3525 35.5665C11.5987 35.6682 11.8472 35.7676 12.098 35.8579L12.2516 35.9144C12.4595 35.9867 12.6673 36.059 12.8774 36.1245L13.1033 36.1946C13.3496 36.2691 13.5981 36.3391 13.8466 36.4047L13.8873 36.416C14.1516 36.4837 14.4182 36.5447 14.6848 36.6012L14.9107 36.6441C15.1366 36.6871 15.3399 36.7255 15.5591 36.7616L15.7466 36.791C16.0177 36.8316 16.291 36.8655 16.5644 36.8949L16.7474 36.9107C16.9733 36.9333 17.1992 36.9491 17.4252 36.9627L17.6511 36.9762C17.9335 36.9875 18.2181 36.9966 18.5028 36.9966C18.7875 36.9966 19.0947 36.9966 19.3884 36.9762C19.5014 36.9762 19.6143 36.9604 19.7205 36.9536C19.9035 36.9401 20.0842 36.931 20.265 36.9152C20.3825 36.9152 20.4909 36.8859 20.6129 36.8723C20.7868 36.8542 20.9585 36.8362 21.1302 36.8113L21.503 36.7503C21.6634 36.7232 21.8216 36.7006 21.9797 36.6712C22.1378 36.6419 22.2373 36.6148 22.366 36.5877C22.4948 36.5605 22.6688 36.5267 22.8179 36.4905C22.967 36.4544 23.0777 36.4227 23.2064 36.3888C23.3352 36.355 23.4979 36.3143 23.6425 36.2736C23.7871 36.233 23.8978 36.1946 24.0243 36.1539C24.1508 36.1132 24.3089 36.068 24.449 36.0206C24.5891 35.9732 24.6975 35.9302 24.8218 35.885C24.946 35.8399 25.1019 35.7856 25.242 35.7314C25.382 35.6772 25.4882 35.6275 25.6125 35.5755C25.7367 35.5236 25.8813 35.4671 26.0146 35.4084C26.1479 35.3496 26.2586 35.2931 26.3784 35.2367C26.4981 35.1802 26.6427 35.1147 26.7715 35.0514C26.9002 34.9881 26.9974 34.9271 27.1239 34.8639C27.2504 34.8006 27.3814 34.7306 27.508 34.6606C27.6345 34.5905 27.7339 34.5273 27.8491 34.4595C27.9643 34.3917 28.1021 34.3149 28.2241 34.2336C28.3461 34.1522 28.45 34.0912 28.5562 34.019C28.6624 33.9467 28.8002 33.8631 28.9199 33.7817C29.0397 33.7004 29.1346 33.6281 29.243 33.5558C29.3515 33.4835 29.4689 33.3909 29.5932 33.305L29.9072 33.0588C30.0202 32.9707 30.1331 32.8848 30.2438 32.7945L30.5443 32.5324C30.6527 32.4398 30.7702 32.3494 30.8674 32.2545C30.9645 32.1596 31.0594 32.0738 31.1566 31.9834C31.2537 31.893 31.3667 31.7891 31.4706 31.6875C31.5745 31.5858 31.6536 31.4977 31.7462 31.4051C31.8388 31.3124 31.9473 31.1995 32.0444 31.0956C32.1416 30.9916 32.2229 30.8967 32.311 30.7996C32.3991 30.7025 32.503 30.5872 32.5957 30.4788C32.6883 30.3704 32.7628 30.2732 32.8464 30.1693C32.93 30.0654 33.0294 29.9434 33.1175 29.8372C33.2056 29.731 33.2757 29.6113 33.357 29.5141C33.4383 29.417 33.5264 29.2882 33.61 29.1707C33.6936 29.0532 33.7591 28.9448 33.836 28.8386C33.9128 28.7324 33.9964 28.6127 34.0619 28.4839C34.1274 28.3552 34.2019 28.258 34.2742 28.1405C34.3465 28.023 34.4233 27.8988 34.5002 27.7745C34.577 27.6503 34.6312 27.5486 34.6967 27.4176C34.7622 27.2866 34.8345 27.1713 34.9 27.0471C34.9655 26.9228 35.0243 26.8008 35.0853 26.6788C35.1463 26.5568 35.2118 26.4258 35.2705 26.297C35.3293 26.1682 35.3812 26.0463 35.4377 25.9197C35.4942 25.7932 35.5529 25.6622 35.6072 25.5312C35.6614 25.4001 35.7066 25.2759 35.7563 25.1471C35.806 25.0183 35.8602 24.8805 35.9099 24.745C35.9596 24.6094 35.9957 24.4851 36.0409 24.3564C36.0861 24.2276 36.1336 24.0808 36.1765 23.9429C36.2194 23.8051 36.2533 23.6786 36.2894 23.5453C36.3256 23.412 36.3708 23.2674 36.4069 23.1251C36.4431 22.9828 36.4724 22.854 36.5041 22.7162C36.5357 22.5784 36.5718 22.4361 36.6012 22.2937C36.6306 22.1514 36.6532 22.0158 36.678 21.878C36.7029 21.7402 36.7345 21.5911 36.7571 21.4465C36.7797 21.3019 36.7955 21.1641 36.8158 21.0241C36.8362 20.884 36.852 20.771 36.8655 20.6445C36.8681 20.5842 36.8219 20.5329 36.7616 20.5293ZM15.0056 5.74513L14.9423 5.69543V5.66606H15.0169L15.0462 5.70221L15.0056 5.74513ZM5.99138 16.8016L5.93716 16.7677L5.92587 16.7316L5.94394 16.7022H5.98687L6.01849 16.7406V16.7949L5.99138 16.8016ZM13.5348 19.7182L13.4896 19.7476H13.458V19.6731L13.5055 19.6234L13.5552 19.655L13.5348 19.7182ZM14.2126 18.4441V18.3831H14.2646L14.2962 18.2904L14.3798 18.2046L14.4091 18.2317V18.3447L14.3504 18.5005L14.2736 18.4892L14.2126 18.4441Z" fill="#0090FC"/>
<path d="M23.4278 30.7002L23.3894 30.707L23.3623 30.7137L23.4278 30.7002Z" fill="#0090FC"/>
<path d="M44.2803 30.1399L43.3766 32.2862H42.4548L45.9453 24.3609L49.3476 32.2862H48.4146L47.5222 30.1399H44.2803ZM45.9159 26.3264L44.6214 29.356H47.172L45.9159 26.3264Z" fill="#0090FC"/>
<path d="M61.5722 25.504V27.7632H64.0912V28.5449H61.5722V32.2974H60.7295V24.7201H64.1612V25.504H61.5722Z" fill="#0090FC"/>
<path d="M76.6657 32.2861H75.823V24.7201H76.9164C78.3533 24.7201 79.6862 25.1019 79.6862 26.8076C79.6862 27.9711 78.9542 28.7957 77.7908 28.8951L80.1991 32.2839H79.1643L76.878 28.9629H76.6657V32.2861ZM76.6657 28.2196H76.9277C77.8811 28.2196 78.8435 28.0389 78.8435 26.8641C78.8435 25.6193 77.9399 25.5086 76.9164 25.5086H76.6657V28.2196Z" fill="#0090FC"/>
<path d="M92.5885 32.2861H91.7458V24.7201H92.5885V32.2861Z" fill="#0090FC"/>
<path d="M110.533 26.3761C109.928 25.7419 109.092 25.38 108.215 25.373C106.53 25.373 105.166 26.8392 105.166 28.5043C105.176 30.2079 106.542 31.5933 108.245 31.6287C109.11 31.6059 109.931 31.245 110.533 30.6234V31.6671C109.876 32.1444 109.086 32.4043 108.274 32.4104C106.876 32.4104 105.584 31.6646 104.886 30.454C104.187 29.2433 104.187 27.7517 104.886 26.541C105.584 25.3304 106.876 24.5846 108.274 24.5846C109.089 24.5724 109.884 24.8333 110.533 25.3256V26.3761ZM123.623 30.1399L122.719 32.2862H121.795L125.288 24.3609L128.688 32.2862H127.755L126.852 30.1399H123.623ZM125.259 26.3264L123.964 29.356H126.515L125.259 26.3264ZM53.0437 15.4574H44.5062C44.5062 17.1066 45.3737 17.9968 47.0455 17.9968C47.9153 17.9968 48.5388 17.7076 48.9839 16.9507H52.8878C52.6004 18.1918 51.8197 19.2621 50.7257 19.9148C49.6181 20.563 48.3536 20.8944 47.0704 20.8727C43.2817 20.8727 40.4509 18.7333 40.4509 14.7887C40.4509 10.9774 43.058 8.68887 46.7767 8.68887C50.7438 8.68887 53.0392 11.1401 53.0392 15.0395L53.0437 15.4574ZM49.2776 13.1169C49.0498 12.0389 48.0836 11.2781 46.9823 11.3095C45.8007 11.3095 44.8202 11.9331 44.574 13.1169H49.2776Z" fill="#0090FC"/>
<path d="M65.5731 10.1664V3.68927H69.9424V20.4932H65.5731V13.6071H59.2655V20.4932H54.8984V3.68927H59.2655V10.1664H65.5731Z" fill="#0090FC"/>
<path d="M84.1098 15.4574H75.5746C75.5746 17.1066 76.4444 17.9968 78.1139 17.9968C78.9837 17.9968 79.6073 17.7076 80.0546 16.9507H83.954C83.6654 18.1938 82.881 19.2648 81.7829 19.9148C80.6752 20.563 79.4107 20.8944 78.1275 20.8727C74.3388 20.8727 71.5081 18.7333 71.5081 14.7887C71.5081 10.9774 74.1152 8.68887 77.8338 8.68887C81.8009 8.68887 84.0963 11.1401 84.0963 15.0395L84.1098 15.4574ZM80.3438 13.1169C80.116 12.0389 79.1498 11.2781 78.0484 11.3095C76.8669 11.3095 75.8864 11.9331 75.6401 13.1169H80.3438ZM98.8059 20.4932H94.7394V19.2235H94.6964C93.9825 20.3531 92.5773 20.8727 91.2399 20.8727C87.8511 20.8727 85.4676 18.0419 85.4676 14.7729C85.4676 11.5038 87.8081 8.68887 91.1969 8.68887C92.5118 8.68887 93.8922 9.17912 94.7394 10.1822V9.05938H98.8059V20.4932ZM89.6675 14.7887C89.6675 16.2368 90.6254 17.3506 92.2746 17.3506C93.9238 17.3506 94.8862 16.2368 94.8862 14.7887C94.8862 13.3835 93.9238 12.1997 92.2746 12.1997C90.6254 12.1997 89.6675 13.3835 89.6675 14.7887Z" fill="#0090FC"/>
<path d="M105.098 20.4932H101.042V1.99487H105.098V20.4932Z" fill="#0090FC"/>
<path d="M120.919 1.99487V10.5098H120.964C121.899 9.26044 123.036 8.68209 124.619 8.68209C127.516 8.68209 128.912 10.5979 128.912 13.4942V20.4977H124.845V14.6328C124.845 13.2954 124.644 11.9218 123.018 11.9218C121.391 11.9218 120.901 13.3044 120.901 14.6328V20.4932H116.834V1.99487H120.919Z" fill="#0090FC"/>
<path d="M115.305 9.05937H113.01V1.99487H108.952V9.05937H106.659V12.403H108.952V20.4932H113.01V12.403H115.305V9.05937Z" fill="#0090FC"/>
</svg>
