<svg width="15" height="13" viewBox="0 0 15 13" fill="none" xmlns="http://www.w3.org/2000/svg">
<path d="M2.71859 0.833344H12.2811C13.5086 0.833344 14.5118 1.79416 14.5796 3.0048L14.5832 3.13543V9.86459C14.5832 11.0921 13.6223 12.0953 12.4117 12.1631L12.2811 12.1667H2.71859C1.49102 12.1667 0.487869 11.2058 0.420145 9.99521L0.416504 9.86459V3.13543C0.416504 1.90786 1.37732 0.904708 2.58796 0.836984L2.71859 0.833344H12.2811H2.71859ZM13.5207 4.63922L7.74726 7.67846C7.61452 7.74831 7.45953 7.75829 7.32049 7.70843L7.25242 7.67846L1.479 4.63993V9.86459C1.479 10.515 1.97987 11.0484 2.61692 11.1001L2.71859 11.1042H12.2811C12.9315 11.1042 13.4649 10.6033 13.5166 9.96624L13.5207 9.86459V4.63922ZM12.2811 1.89584H2.71859C2.06822 1.89584 1.53483 2.39671 1.48311 3.03376L1.479 3.13543V3.4393L7.49984 6.60803L13.5207 3.43859V3.13543C13.5207 2.48506 13.0198 1.95167 12.3827 1.89995L12.2811 1.89584Z" fill="#212121"/>
</svg>
